<svg width="180" height="180" viewBox="0 0 180 180" xmlns="http://www.w3.org/2000/svg" role="img" aria-label="HTG Man & Van logo">
  <style>
    @media (prefers-color-scheme: light) {
      .bg { fill: #000; }
      .fg { fill: #fff; }
    }
    @media (prefers-color-scheme: dark) {
      .bg { fill: #fff; }
      .fg { fill: #000; }
    }
  </style>
  <rect class="bg" x="0" y="0" width="180" height="180" rx="30" />
  <g class="fg" transform="translate(20 60)">
    <rect x="20" y="28" width="80" height="32" rx="6" />
    <path d="M100 28h28l12 16v16h-40z" />
    <path d="M46 28v-12c0-4.418 3.582-8 8-8h32c4.418 0 8 3.582 8 8v12z" />
    <circle cx="46" cy="64" r="12" />
    <circle cx="114" cy="64" r="12" />
    <rect x="56" y="48" width="22" height="6" rx="3" class="bg" />
    <rect x="106" y="40" width="10" height="6" rx="3" class="bg" />
    <rect x="34" y="16" width="18" height="12" rx="2" class="bg" />
    <rect x="56" y="16" width="18" height="12" rx="2" class="bg" />
    <rect x="78" y="16" width="18" height="12" rx="2" class="bg" />
  </g>
</svg>
